<?xml version="1.0" encoding="UTF-8" standalone="no"?>
<svg
   xmlns:dc="http://purl.org/dc/elements/1.1/"
   xmlns:cc="http://creativecommons.org/ns#"
   xmlns:rdf="http://www.w3.org/1999/02/22-rdf-syntax-ns#"
   xmlns:svg="http://www.w3.org/2000/svg"
   xmlns="http://www.w3.org/2000/svg"
   viewBox="0 0 838.03735 227.56"
   height="227.56"
   width="838.03735"
   xml:space="preserve"
   id="svg2"
   version="1.1"><metadata
     id="metadata8"><rdf:RDF><cc:Work
         rdf:about=""><dc:format>image/svg+xml</dc:format><dc:type
           rdf:resource="http://purl.org/dc/dcmitype/StillImage" /></cc:Work></rdf:RDF></metadata><defs
     id="defs6"><clipPath
       id="clipPath18"
       clipPathUnits="userSpaceOnUse"><path
         id="path16"
         d="M 0,170.67 H 628.528 V 0 H 0 Z" /></clipPath></defs><g
     transform="matrix(1.3333333,0,0,-1.3333333,0,227.56)"
     id="g10"><g
       id="g12"><g
         clip-path="url(#clipPath18)"
         id="g14"><g
           transform="translate(418.6847,39.3281)"
           id="g20"><path
             id="path22"
             style="fill:#5b3793;fill-opacity:1;fill-rule:nonzero;stroke:none"
             d="m 0,0 h -29.459 c 0,1.075 0,2.041 0,3.008 0,15.708 0.118,31.417 -0.073,47.123 -0.056,4.547 -0.632,9.064 -2.687,13.404 -3.03,6.402 -11.345,7.169 -16.126,3.632 -4.135,-3.058 -6.046,-7.369 -6.074,-12.358 -0.099,-17.203 -0.038,-34.408 -0.038,-51.612 v -3.15 h -29.459 c 0,0.92 0,1.873 0,2.827 0,15.043 0.064,30.086 -0.046,45.129 -0.027,3.683 -0.351,7.414 -1.044,11.027 -0.653,3.407 -2.098,6.628 -5.241,8.642 -4.171,2.672 -9.331,1.954 -12.944,-0.919 -3.767,-2.997 -5.704,-7.012 -5.712,-11.836 -0.03,-17.287 -0.012,-34.574 -0.012,-51.861 v -3.209 h -2.97 c -7.826,0 -15.651,-0.001 -23.477,0.001 -3.506,0 -3.51,0.003 -3.51,3.412 -0.002,25.681 0.026,51.362 -0.031,77.043 -0.008,3.781 -0.417,7.561 -0.655,11.578 h 26.057 c 0.3,-3.272 0.594,-6.479 0.951,-10.364 7.345,8.871 16.263,12.643 27.05,12.629 11.121,-0.015 19.604,-4.388 25.235,-14.199 4.828,6.26 10.728,11.087 18.208,12.882 12.208,2.931 23.913,2.125 33.013,-8.103 4.495,-5.053 6.883,-11.204 7.971,-17.769 0.697,-4.204 0.999,-8.514 1.027,-12.78 C 0.065,37.14 0,20.102 0,3.064 Z" /></g><g
           transform="translate(488.4709,131.4273)"
           id="g24"><path
             id="path26"
             style="fill:#5b3793;fill-opacity:1;fill-rule:nonzero;stroke:none"
             d="m 0,0 c 4.8,0 9.108,0 13.416,0 3.579,0 7.162,-0.077 10.738,0.032 1.768,0.054 2.354,-0.795 2.483,-2.328 0.205,-2.454 0.431,-4.906 0.699,-7.924 7.278,8.193 16.037,12.416 26.866,12.262 10.977,-0.156 19.716,-3.992 25.117,-13.904 2.77,2.497 5.393,5.119 8.281,7.408 4.97,3.939 10.743,6.124 17.072,6.398 5.606,0.243 11.14,0.079 16.531,-2.246 7.238,-3.121 11.823,-8.556 14.8,-15.496 3.088,-7.2 4.065,-14.848 4.054,-22.647 -0.023,-16.871 -0.007,-33.743 -0.007,-50.614 v -2.96 h -29.459 v 2.701 c 0,14.627 0.113,29.256 -0.069,43.881 -0.054,4.403 -0.499,8.899 -1.528,13.169 -1.658,6.886 -5.441,10.007 -12.894,9.338 -4.083,-0.366 -9.521,-5.661 -9.977,-9.859 -0.303,-2.781 -0.5,-5.589 -0.508,-8.385 -0.047,-15.956 -0.023,-31.914 -0.023,-47.871 v -3.207 h -2.971 c -7.825,0 -15.651,-0.001 -23.477,0 -3.505,10e-4 -3.509,0.004 -3.509,3.413 -0.002,16.872 0.043,33.743 -0.029,50.614 -0.02,4.619 -1.322,8.906 -4.334,12.56 -2.796,3.393 -10.107,3.668 -14.157,0.662 -4.825,-3.582 -6.404,-8.64 -6.441,-14.238 -0.108,-16.621 -0.039,-33.243 -0.039,-49.865 v -2.93 H 1.177 v 2.765 c 0,20.694 0.042,41.389 -0.023,62.083 C 1.131,-19.903 0.873,-12.617 0.653,-5.333 0.604,-3.712 0.266,-2.1 0,0" /></g><g
           transform="translate(190.8729,84.8467)"
           id="g28"><path
             id="path30"
             style="fill:#5b3793;fill-opacity:1;fill-rule:nonzero;stroke:none"
             d="m 0,0 c 0.276,11.611 3.604,22.041 10.88,30.975 5.018,6.161 11.401,10.688 18.895,13.623 9.105,3.565 18.6,4.498 28.192,3.86 5.354,-0.356 10.624,-1.908 15.946,-2.844 2.029,-0.356 2.289,-1.665 1.96,-3.264 -1.285,-6.246 -2.62,-12.483 -3.96,-18.718 -0.371,-1.723 -1.535,-1.689 -2.87,-1.183 -4.613,1.747 -9.375,2.188 -14.309,2.286 -11.3,0.227 -20.574,-7.054 -22.668,-18.369 -1.677,-9.063 0.018,-17.438 6.955,-23.979 3.726,-3.515 8.425,-5.317 13.66,-5.661 5.877,-0.386 11.593,0.044 17.091,2.337 1.841,0.768 2.792,-0.152 3.09,-1.934 1.028,-6.133 2.034,-12.27 3.063,-18.402 0.261,-1.553 -0.587,-2.444 -1.894,-2.753 -4.7,-1.11 -9.386,-2.44 -14.159,-3.045 -4.744,-0.601 -9.601,-0.746 -14.383,-0.531 C 34.645,-47.115 24.438,-44.246 16,-37.166 8.747,-31.081 3.813,-23.316 2.053,-13.858 1.199,-9.27 0.674,-4.621 0,0" /></g><path
           id="path32"
           style="fill:#5b3793;fill-opacity:1;fill-rule:nonzero;stroke:none"
           d="m 176.142,39.3 h -30.049 v 91.939 h 30.049 z" /><g
           transform="translate(438.795,131.3221)"
           id="g34"><path
             id="path36"
             style="fill:#5b3793;fill-opacity:1;fill-rule:nonzero;stroke:none"
             d="m 0,0 h 30.153 v -91.925 c -0.583,-0.07 -1.212,-0.211 -1.842,-0.212 -8.576,-0.014 -17.152,0.04 -25.727,-0.045 -2.093,-0.021 -2.727,0.734 -2.724,2.771 0.048,29.174 0.032,58.349 0.037,87.523 0,0.565 0.06,1.13 0.103,1.888" /></g><g
           transform="translate(453.5605,140.2138)"
           id="g38"><path
             id="path40"
             style="fill:#5b3793;fill-opacity:1;fill-rule:nonzero;stroke:none"
             d="m 0,0 c -7.229,-0.551 -13.765,4.956 -15.001,10.688 -2.111,9.787 2.491,18.515 13.259,19.456 5.566,0.486 10.668,-0.293 14.553,-4.68 3.454,-3.902 4.523,-8.626 3.475,-13.617 C 15.093,6.167 11.549,2.327 5.852,0.793 3.967,0.286 1.954,0.251 0,0" /></g><g
           transform="translate(161.4786,140.4028)"
           id="g42"><path
             id="path44"
             style="fill:#5b3793;fill-opacity:1;fill-rule:nonzero;stroke:none"
             d="m 0,0 c -6.416,-0.173 -11.431,1.73 -14.27,6.825 -3.87,6.944 -3.152,16.844 5.271,21.463 3.837,2.104 8.309,2.352 12.661,1.574 C 16.077,27.643 17.983,13.589 13.231,6.519 10.428,2.349 6.822,-0.221 0,0" /></g><g
           transform="translate(23.2312,120.5879)"
           id="g46"><path
             id="path48"
             style="fill:#ffffff;fill-opacity:1;fill-rule:nonzero;stroke:none"
             d="m 0,0 c -3.008,0 -5.408,2.146 -5.837,5.219 -0.207,1.48 -0.597,1.604 -1.747,1.604 L -7.859,6.818 C -8.356,6.8 -8.854,6.794 -9.353,6.794 c -0.538,0 -1.075,0.007 -1.613,0.015 -0.524,0.006 -1.05,0.014 -1.574,0.014 -0.676,0 -1.352,-0.012 -2.024,-0.052 -0.15,-0.009 -0.291,-0.013 -0.426,-0.013 -1.114,0 -1.947,0.297 -2.547,0.907 -0.844,0.858 -0.933,2.065 -0.916,3.021 0.064,3.743 0.053,7.558 0.041,11.247 -0.005,1.475 -0.009,2.95 -0.009,4.426 0,1.5 0.004,3.001 0.008,4.501 0.011,3.665 0.021,7.455 -0.033,11.175 -0.021,1.354 0.361,2.441 1.134,3.231 0.767,0.785 1.881,1.206 3.223,1.218 4.625,0.039 9.249,0.048 13.875,0.048 l 14.599,-0.006 c 1.261,0 2.251,-0.358 2.947,-1.063 0.697,-0.706 1.043,-1.704 1.027,-2.965 -0.008,-0.651 -0.009,-1.302 10e-4,-1.953 0.041,-2.448 0.082,-4.98 -3.499,-7.144 -2.401,-1.452 -3.741,-4.047 -3.585,-6.942 0.162,-2.998 1.851,-5.529 4.518,-6.772 1.21,-0.563 2.795,-1.613 2.593,-4.212 C 18.25,13.728 18.25,12.047 18.386,10.48 18.493,9.25 18.258,8.336 17.665,7.689 16.813,6.76 15.516,6.757 15.083,6.757 h -0.004 c -0.148,0 -0.304,0.005 -0.466,0.014 -0.72,0.038 -1.507,0.056 -2.472,0.056 -0.588,0 -1.177,-0.006 -1.765,-0.013 C 9.776,6.808 9.178,6.801 8.579,6.801 8.279,6.801 7.68,6.807 7.679,6.807 6.657,6.807 6.457,6.561 6.308,5.773 5.96,3.925 5.186,2.486 4.006,1.496 2.84,0.517 1.454,0 0,0" /></g><g
           transform="translate(40.2052,130.9457)"
           id="g50"><path
             id="path52"
             style="fill:#59c1d2;fill-opacity:1;fill-rule:nonzero;stroke:none"
             d="m 0,0 c -0.151,1.731 -0.136,3.494 0,5.227 0.115,1.479 -0.479,2.213 -1.779,2.818 -6.609,3.078 -7.242,12.479 -1.067,16.211 2.862,1.73 2.855,3.482 2.815,5.909 -0.011,0.664 -0.01,1.329 -0.001,1.993 0.022,1.726 -0.8,2.594 -2.557,2.593 -9.487,-0.008 -18.975,0.039 -28.462,-0.042 -1.744,-0.015 -2.984,-0.884 -2.952,-3.011 0.076,-5.231 0.025,-10.464 0.025,-15.697 0,-5.233 0.059,-10.466 -0.033,-15.697 -0.031,-1.797 0.472,-2.589 2.389,-2.476 2.239,0.132 4.494,-0.03 6.739,0.049 2.045,0.072 3.15,-0.49 3.476,-2.82 0.526,-3.767 4.681,-5.222 7.528,-2.833 1.06,0.89 1.575,2.152 1.82,3.454 0.305,1.619 1.235,2.209 2.785,2.188 2.33,-0.031 4.666,0.087 6.989,-0.038 C -0.606,-2.263 0.16,-1.831 0,0" /></g><g
           transform="translate(23.4148,82.5005)"
           id="g54"><path
             id="path56"
             style="fill:#ffffff;fill-opacity:1;fill-rule:nonzero;stroke:none"
             d="m 0,0 c -0.444,0 -0.889,0.072 -1.321,0.214 -2.988,0.978 -4.596,2.728 -4.781,5.2 -0.093,1.256 -0.49,1.6 -1.846,1.6 L -8.083,7.012 C -8.659,7 -9.235,6.996 -9.813,6.996 c -0.546,0 -2.723,0.014 -3.264,0.014 -0.741,0 -1.483,-0.006 -2.223,-0.029 l -0.193,-0.003 c -1.005,0 -1.759,0.267 -2.305,0.815 -0.754,0.757 -0.837,1.797 -0.834,2.514 0.037,9.531 0.037,19.325 0,29.109 -0.003,0.731 0.081,1.792 0.842,2.554 0.521,0.524 1.244,0.789 2.148,0.789 0.123,0 0.252,-0.005 0.388,-0.014 0.513,-0.037 1.033,-0.071 1.55,-0.071 0.428,0 0.8,0.023 1.141,0.071 0.362,0.05 0.694,0.075 1.012,0.075 2.567,0 3.729,-1.721 4.454,-3.221 1.238,-2.557 3.639,-3.854 7.136,-3.854 l 0.125,0.001 c 3.042,0.026 5.293,1.366 6.508,3.872 1.091,2.251 2.524,3.168 4.948,3.168 0.122,0 0.658,-0.014 0.658,-0.014 5.282,-0.155 5.886,-0.79 5.886,-6.172 V 24.902 c 0,-1.341 -0.003,-2.683 -0.007,-4.025 C 18.148,17.388 18.14,13.78 18.193,10.239 18.206,9.398 18.125,8.442 17.425,7.732 16.915,7.214 16.207,6.963 15.26,6.963 c -0.103,0 -0.21,0.002 -0.322,0.008 -0.492,0.025 -0.985,0.033 -1.478,0.033 -0.533,0 -1.067,-0.009 -1.602,-0.019 -0.55,-0.01 -1.101,-0.02 -1.651,-0.02 -0.883,0 -1.61,0.026 -2.29,0.081 C 7.776,7.058 7.641,7.063 7.511,7.063 6.497,7.063 5.947,6.805 5.756,5.393 5.579,4.078 5.152,3.088 4.452,2.369 3.379,1.266 1.902,0 0,0" /></g><g
           transform="translate(40.162,107.4025)"
           id="g58"><path
             id="path60"
             style="fill:#2d2f71;fill-opacity:1;fill-rule:nonzero;stroke:none"
             d="m 0,0 c 0,-4.895 -0.045,-9.791 0.029,-14.684 0.021,-1.363 -0.303,-1.906 -1.767,-1.831 -2.321,0.118 -4.665,-0.115 -6.978,0.072 -2.261,0.184 -3.397,-0.784 -3.679,-2.876 -0.116,-0.855 -0.368,-1.663 -0.916,-2.226 -1.16,-1.191 -2.62,-2.352 -4.316,-1.797 -1.825,0.599 -3.637,1.667 -3.808,3.96 -0.165,2.207 -1.376,2.952 -3.424,2.909 -2.41,-0.05 -4.823,0.043 -7.232,-0.031 -1.421,-0.044 -1.877,0.521 -1.871,1.903 0.038,9.707 0.037,19.414 0,29.121 -0.005,1.367 0.423,2.014 1.859,1.909 0.992,-0.072 2.01,-0.127 2.988,0.01 2.019,0.282 3.04,-0.384 3.996,-2.359 1.632,-3.374 4.807,-4.687 8.549,-4.654 3.536,0.032 6.306,1.653 7.77,4.672 0.964,1.988 2.009,2.424 4.006,2.364 C -0.003,16.318 0,16.416 0,11.698 0,7.799 0,3.899 0,0" /></g><g
           transform="translate(23.1804,43.7339)"
           id="g62"><path
             id="path64"
             style="fill:#ffffff;fill-opacity:1;fill-rule:nonzero;stroke:none"
             d="m 0,0 c -2.692,0 -5.213,2.577 -5.862,5.993 -0.116,0.605 -0.241,0.947 -1.479,0.954 -2.094,0.011 -4.186,0.03 -6.278,0.049 l -2.455,0.021 c -0.403,0.004 -0.769,0.175 -1.027,0.453 -0.125,0.074 -0.239,0.168 -0.336,0.279 -0.96,1.094 -0.95,2.362 -0.943,3.288 l 0.011,6.914 c 0.014,7.111 0.026,14.465 -0.042,21.692 -0.012,1.153 0.101,2.603 1.08,3.591 0.635,0.641 1.518,0.966 2.626,0.966 0.314,0 0.659,-0.026 1.023,-0.078 0.358,-0.05 0.753,-0.075 1.208,-0.075 0.581,0 1.165,0.038 1.743,0.076 0.092,0.006 0.182,0.009 0.27,0.009 1.415,0 2.421,-0.735 2.991,-2.183 1.68,-4.281 5.337,-4.92 7.367,-4.92 1.85,0 3.738,0.507 5.316,1.426 1.042,0.607 1.788,1.663 2.349,3.325 0.66,1.953 1.936,2.282 3.217,2.347 1.219,0.061 2.131,0.108 2.908,0.108 4.587,0 4.647,-2.289 4.766,-6.848 l 0.008,-0.299 c 0.081,-3.082 -1.18,-4.307 -3.534,-5.491 -2.622,-1.317 -3.906,-3.993 -3.52,-7.34 0.367,-3.193 1.591,-5.225 3.966,-6.59 0.07,-0.036 0.311,-0.088 0.47,-0.123 0.662,-0.144 2.419,-0.526 2.517,-2.492 0.106,-2.124 0.064,-4.196 -0.125,-6.159 C 18.18,8.312 17.81,6.958 15.585,6.958 L 15.153,6.962 C 14.463,6.96 13.791,6.95 13.118,6.94 12.339,6.928 11.56,6.917 10.78,6.917 9.64,6.917 8.695,6.942 7.81,6.996 7.71,7.002 7.615,7.005 7.522,7.005 6.602,7.005 6.224,6.795 5.938,5.615 5.192,2.534 2.54,0.015 0.025,0 Z" /></g><g
           transform="translate(6.809,52.4171)"
           id="g66"><path
             id="path68"
             style="fill:#5b3793;fill-opacity:1;fill-rule:nonzero;stroke:none"
             d="m 0,0 c -0.662,0.756 -0.59,1.672 -0.59,2.584 0.007,9.463 0.057,18.927 -0.033,28.389 -0.022,2.324 0.652,3.411 3.115,3.063 1.06,-0.15 2.163,-0.08 3.239,-0.011 1.006,0.065 1.509,-0.407 1.851,-1.278 2.632,-6.702 10.107,-6.885 14.716,-4.2 1.6,0.932 2.436,2.493 2.978,4.097 0.384,1.136 0.927,1.332 1.947,1.384 6.139,0.311 6.034,0.326 6.192,-5.66 0.06,-2.259 -0.606,-3.108 -2.754,-4.187 -3.231,-1.624 -4.736,-4.9 -4.29,-8.769 0.378,-3.289 1.67,-5.934 4.667,-7.657 0.777,-0.446 2.214,-0.164 2.278,-1.457 0.098,-1.98 0.069,-3.981 -0.12,-5.952 -0.072,-0.755 -1.041,-0.647 -1.695,-0.649 -2.412,-0.009 -4.831,-0.116 -7.234,0.031 -1.928,0.117 -2.895,-0.641 -3.335,-2.463 -0.605,-2.502 -2.71,-4.52 -4.543,-4.531 -1.982,-0.012 -3.963,2.08 -4.487,4.841 -0.311,1.637 -1.388,2.098 -2.864,2.106 -2.91,0.016 -5.821,0.046 -8.729,0.07 C 0.281,-0.08 0.177,0.003 0,0" /></g><g
           transform="translate(17.3904)"
           id="g70"><path
             id="path72"
             style="fill:#ffffff;fill-opacity:1;fill-rule:nonzero;stroke:none"
             d="m 0,0 c -1.657,0 -3.254,0.654 -4.38,1.793 -0.964,0.976 -1.486,2.231 -1.471,3.536 0.031,2.602 -0.926,2.868 -3.7,3.255 -0.343,0.048 -0.686,0.096 -1.027,0.153 -1.009,0.168 -2.019,0.272 -3.088,0.383 -0.414,0.043 -0.827,0.085 -1.24,0.132 -0.582,0.065 -1.667,0.187 -2.217,1.134 -0.33,0.567 -0.355,1.231 -0.073,1.975 0.589,3.084 1.085,6.236 1.564,9.285 0.667,4.237 1.357,8.617 2.307,12.898 0.216,0.972 0.326,1.977 0.442,3.039 0.099,0.896 0.2,1.823 0.371,2.747 0.389,2.103 1.539,2.984 3.972,3.042 l 0.302,0.003 c 4.505,0 6.32,-2.415 7.659,-6.041 0.723,-1.955 3.517,-3.429 6.499,-3.429 0.492,0 0.973,0.043 1.429,0.126 2.686,0.491 4.659,1.282 5.557,3.549 0.608,1.534 1.7,1.763 2.297,1.763 0.526,0 0.967,-0.164 1.321,-0.296 0.108,-0.041 0.211,-0.087 0.311,-0.106 3.036,-0.13 4.731,-0.205 5.715,-1.418 0.971,-1.201 0.713,-2.742 0.198,-5.814 L 22.73,31.604 C 21.312,23.137 19.963,14.746 18.702,6.877 18.366,4.79 17.053,4.352 16.01,4.352 c -0.289,0 -0.614,0.031 -1.024,0.1 L 14.821,4.479 C 12.325,4.896 9.968,5.289 7.545,5.289 L 7.153,5.285 C 5.886,5.262 5.81,4.933 5.713,4.515 5.073,1.74 2.893,0.01 0.022,0 Z" /></g><g
           transform="translate(1.5599,11.9603)"
           id="g74"><path
             id="path76"
             style="fill:#ac3b9c;fill-opacity:1;fill-rule:nonzero;stroke:none"
             d="m 0,0 c 1.427,7.433 2.256,14.922 3.889,22.277 0.424,1.911 0.466,3.904 0.823,5.834 0.252,1.359 0.783,1.84 2.611,1.884 3.94,0.093 5.389,-1.837 6.6,-5.113 1.164,-3.15 5.754,-4.892 9.511,-4.205 2.847,0.52 5.449,1.466 6.62,4.421 0.633,1.598 1.715,0.505 2.506,0.471 5.553,-0.243 5.51,-0.276 4.603,-5.69 -1.38,-8.24 -2.709,-16.489 -4.03,-24.738 -0.214,-1.336 -0.829,-1.461 -2.084,-1.252 -2.67,0.446 -5.35,0.903 -8.092,0.853 -1.438,-0.026 -2.465,-0.437 -2.795,-1.869 -0.535,-2.321 -2.329,-3.409 -4.314,-3.416 -2.314,-0.008 -4.478,1.665 -4.451,3.895 C 11.45,-2.147 8.337,-2.3 5.485,-1.825 4.029,-1.583 2.552,-1.466 1.084,-1.3 0.269,-1.208 -0.456,-1.062 0,0" /></g><g
           transform="translate(116.2556,70.623)"
           id="g78"><path
             id="path80"
             style="fill:#ffffff;fill-opacity:1;fill-rule:nonzero;stroke:none"
             d="m 0,0 c -0.38,0 -0.746,0.153 -1.013,0.426 -0.411,0.419 -0.828,0.823 -1.243,1.223 -1.156,1.119 -2.352,2.275 -3.338,3.71 -0.99,1.441 -1.724,1.625 -2.255,1.625 -0.586,0 -1.341,-0.257 -2.244,-0.767 -0.939,-0.529 -1.88,-0.797 -2.795,-0.797 -2.008,-0.001 -3.493,1.261 -4.435,2.21 -1.392,1.401 -2.591,3.734 -0.403,6.895 1.618,2.335 1.602,2.535 -0.328,4.291 -3.042,2.768 -8.133,7.401 -3.842,14.453 0.165,0.271 0.176,0.89 0.186,1.436 0.02,1.091 0.05,2.741 1.54,3.558 0.684,0.376 1.495,0.551 2.551,0.551 0.514,0 1.051,-0.041 1.588,-0.084 0.46,-0.037 0.92,-0.076 1.358,-0.076 l 0.68,0.012 c 0.306,0.006 0.613,0.013 0.92,0.013 0.365,0 0.73,-0.01 1.094,-0.037 0.269,-0.021 0.525,-0.035 0.765,-0.035 0.854,0 1.206,0 1.392,1.487 0.331,2.654 2.599,4.798 5.645,5.335 0.146,0.026 0.3,0.04 0.459,0.04 2.243,0 5.78,-3.018 5.865,-5.627 0.045,-1.397 0.383,-1.52 2.461,-1.654 0.725,-0.047 1.362,-0.059 2,-0.059 0.505,0 1.01,0.008 1.516,0.016 0.52,0.007 1.039,0.015 1.558,0.015 h 0.169 c 1.561,-0.006 3.14,-0.161 4.107,-1.258 0.95,-1.077 0.907,-2.61 0.74,-3.968 C 13.917,26.566 12.49,20.909 10.338,15.639 8.182,10.362 5.157,5.414 1.091,0.513 0.835,0.204 0.459,0.018 0.059,0.001 0.039,0 0.02,0 0,0" /></g><g
           transform="translate(116.2554,72.0408)"
           id="g82"><path
             id="path84"
             style="fill:#bc59b1;fill-opacity:1;fill-rule:nonzero;stroke:none"
             d="m 0,0 c -1.545,1.578 -3.183,2.935 -4.426,4.744 -1.744,2.539 -3.6,2.848 -6.363,1.291 -2.216,-1.25 -3.898,-0.466 -5.528,1.176 -1.673,1.684 -1.453,3.342 -0.243,5.089 1.964,2.837 1.993,3.843 -0.539,6.146 -3.871,3.522 -6.971,7.106 -3.586,12.668 0.834,1.37 -0.168,3.74 1.197,4.489 1.286,0.707 3.244,0.198 4.907,0.216 0.832,0.01 1.668,0.055 2.495,-0.008 2.01,-0.153 3.339,0.031 3.67,2.69 0.268,2.146 2.187,3.709 4.486,4.115 1.475,0.26 4.6,-2.398 4.661,-4.238 0.093,-2.828 1.965,-2.904 3.875,-3.028 1.74,-0.112 3.493,-0.02 5.24,-0.025 3.048,-0.01 3.805,-0.712 3.446,-3.636 C 12.578,25.875 11.243,20.186 9.025,14.758 6.839,9.405 3.774,4.55 0,0" /></g><g
           transform="translate(78.1257,49.9028)"
           id="g86"><path
             id="path88"
             style="fill:#ffffff;fill-opacity:1;fill-rule:nonzero;stroke:none"
             d="m 0,0 c -0.38,0 -1.536,0 -2.308,0.857 -0.775,0.862 -0.724,2.02 -0.595,3.232 0.067,0.641 0.049,1.319 0.03,2.036 -0.01,0.35 -0.019,0.7 -0.019,1.049 0,0.225 -0.004,0.451 -0.008,0.676 -0.011,0.537 -0.022,1.092 0.021,1.668 0.191,2.613 0.017,3.243 -2.145,3.425 -2.895,0.243 -4.601,3.119 -4.736,5.702 -0.16,3.019 2.33,5.31 4.73,5.7 2.098,0.341 2.337,1.016 2.173,3.52 -0.03,0.447 -0.079,0.91 -0.126,1.379 -0.196,1.883 -0.415,4.016 0.465,5.733 0.827,1.61 2.628,1.968 4.076,2.255 0.76,0.151 1.547,0.308 2.051,0.601 0.411,0.238 0.827,0.471 1.244,0.704 1.824,1.019 3.546,1.982 4.823,3.474 0.449,0.526 1.202,1.405 2.368,1.405 1.057,0 1.849,-0.715 2.421,-1.338 2.298,-2.5 3.869,-4.597 3.153,-8.831 -0.432,-2.557 0.19,-4.983 1.751,-6.831 1.38,-1.634 3.337,-2.57 5.369,-2.57 0.664,0 1.333,0.099 1.99,0.296 0.727,0.217 1.362,0.323 1.94,0.323 1.699,0 2.799,-0.909 3.65,-1.799 l 0.128,-0.134 c 1.903,-1.988 2.95,-3.082 2.863,-4.559 C 35.22,16.457 33.916,15.383 31.942,13.757 22.926,6.328 12.636,1.737 1.358,0.113 0.83,0.037 0.387,0 0,0" /></g><g
           transform="translate(76.6515,57.077)"
           id="g90"><path
             id="path92"
             style="fill:#5b3793;fill-opacity:1;fill-rule:nonzero;stroke:none"
             d="m 0,0 c 0,0.747 -0.046,1.497 0.008,2.24 0.189,2.573 0.123,4.642 -3.439,4.941 -2.069,0.174 -3.337,2.404 -3.44,4.364 -0.111,2.119 1.668,3.922 3.542,4.227 3.298,0.536 3.531,2.408 3.359,5.012 -0.141,2.147 -0.692,4.659 0.187,6.371 0.859,1.673 3.815,1.252 5.579,2.278 2.251,1.309 4.677,2.431 6.431,4.483 0.854,0.997 1.412,1.396 2.669,0.028 2.073,-2.254 3.423,-3.945 2.798,-7.635 -1.191,-7.043 4.804,-12.53 10.914,-10.7 1.913,0.573 2.902,0.217 4.16,-1.097 3.429,-3.584 3.595,-3.665 -0.253,-6.836 C 23.804,0.499 13.911,-4.034 2.63,-5.659 -0.035,-6.042 -0.241,-5.319 -0.02,-3.234 0.093,-2.167 0,-1.079 0,0" /></g><g
           transform="translate(46.4949,130.834)"
           id="g94"><path
             id="path96"
             style="fill:#ffffff;fill-opacity:1;fill-rule:nonzero;stroke:none"
             d="m 0,0 c -0.729,0 -1.787,0.093 -2.536,0.897 -0.765,0.82 -0.789,1.96 -0.726,2.861 0.085,1.199 0.068,2.401 0.049,3.673 -0.012,0.828 -0.023,1.656 -0.007,2.484 0.008,0.362 -0.035,0.5 -0.048,0.532 H -3.27 c -0.019,0 -0.164,0.07 -0.534,0.119 -3.903,0.523 -5.894,2.546 -5.921,6.016 -0.027,3.64 1.883,5.605 6.012,6.184 0.347,0.048 0.454,0.12 0.459,0.124 -10e-4,-0.001 -10e-4,-0.001 -0.002,-0.001 -0.013,0 0.04,0.148 0.035,0.638 -0.012,1.289 -0.008,2.577 -0.003,3.866 0.007,1.834 0.014,3.73 -0.032,5.583 -0.02,0.847 0.018,1.813 0.733,2.545 0.695,0.712 1.659,0.794 2.324,0.794 3.97,-0.04 7.869,-0.059 11.767,-0.059 4.001,0 8.002,0.02 12.002,0.055 h 0.004 c 0.74,0 1.722,-0.089 2.408,-0.845 0.682,-0.752 0.672,-1.752 0.606,-2.438 -0.082,-0.826 -0.083,-1.539 -0.005,-2.179 0.339,-2.772 0.104,-5.642 -3.883,-7.858 -2.022,-1.124 -3.154,-3.509 -3.028,-6.377 0.137,-3.119 1.744,-5.812 4.096,-6.862 C 25.35,9.046 26.153,6.85 26.425,5.938 26.71,4.982 27.269,2.595 26.297,1.083 25.984,0.595 25.379,0.014 24.272,0.014 24.101,0.014 23.924,0.029 23.749,0.045 23.669,0.053 23.59,0.063 23.514,0.063 21.436,0.053 19.359,0.05 17.284,0.05 L 11.517,0.052 C 10.42,0.052 9.322,0.062 8.226,0.071 7.137,0.08 6.047,0.089 4.959,0.089 3.16,0.089 1.692,0.063 0.34,0.007 0.222,0.002 0.108,0 0,0" /></g><g
           transform="translate(58.0117,132.3036)"
           id="g98"><path
             id="path100"
             style="fill:#2d2f71;fill-opacity:1;fill-rule:nonzero;stroke:none"
             d="m 0,0 c -3.746,0 -7.497,0.109 -11.236,-0.047 -1.834,-0.076 -2.247,0.554 -2.129,2.235 0.146,2.067 0.003,4.152 0.046,6.228 0.026,1.292 -0.397,1.896 -1.814,2.086 -3.302,0.441 -4.671,1.908 -4.692,4.621 -0.021,2.846 1.313,4.282 4.791,4.769 1.471,0.206 1.725,0.953 1.714,2.179 -0.031,3.157 0.042,6.315 -0.036,9.47 -0.031,1.289 0.146,1.903 1.699,1.887 7.907,-0.082 15.816,-0.073 23.723,-0.004 1.404,0.012 1.713,-0.504 1.594,-1.728 -0.081,-0.823 -0.1,-1.671 0,-2.489 C 14.008,26.354 13.469,24.414 10.495,22.76 4.882,19.639 5.763,9.626 11.673,6.988 13.276,6.273 14.518,1.827 13.588,0.379 13.19,-0.24 12.533,0.014 11.987,0.011 7.991,-0.009 3.996,0 0,0" /></g><g
           transform="translate(70.905,49.5786)"
           id="g102"><path
             id="path104"
             style="fill:#ffffff;fill-opacity:1;fill-rule:nonzero;stroke:none"
             d="M 0,0 C -0.177,0 -0.362,0.016 -0.54,0.033 -0.615,0.04 -0.687,0.049 -0.751,0.049 -2.781,0.045 -9.413,0.044 -9.413,0.044 h -2.569 c -4.077,0 -8.151,-0.003 -12.227,-0.032 h -0.003 c -0.807,0 -1.89,0.092 -2.657,0.886 -0.766,0.792 -0.821,1.856 -0.797,2.587 0.054,1.583 0.044,3.21 0.034,4.783 -0.007,1.136 -0.014,2.272 0.001,3.408 0.016,1.137 -0.205,1.279 -1.08,1.35 -2.903,0.235 -4.818,2.02 -5.393,5.024 -0.306,1.6 -0.038,3.079 0.778,4.278 0.786,1.156 2.03,1.947 3.503,2.227 2.094,0.398 2.358,1.124 2.231,3.597 -0.026,0.496 -0.095,1.032 -0.165,1.576 -0.254,1.991 -0.541,4.248 0.903,5.72 0.733,0.747 1.771,1.11 3.172,1.11 0.69,0 1.401,-0.081 2.088,-0.161 0.643,-0.073 1.248,-0.142 1.784,-0.142 l 0.159,0.002 c 0.927,0.027 1.855,0.035 2.783,0.035 0.711,0 1.422,-0.005 2.132,-0.01 0.705,-0.005 7.606,-0.025 8.702,-0.025 1.705,0 3.41,0.01 5.114,0.044 l 0.154,0.002 c 0.692,0 1.691,-0.09 2.375,-0.867 C 2.367,34.575 2.22,33.424 2.172,33.046 2.111,32.579 2.112,32.043 2.173,31.36 2.367,29.138 2.1,26.914 -1.141,25.69 -3.953,24.629 -4.86,20.827 -4.515,17.744 c 0.36,-3.2 1.876,-5.139 5.071,-6.485 C 1.92,10.922 2.126,9.983 2.129,9.454 L 2.143,7.914 C 2.161,5.953 2.182,3.925 2.098,1.917 2.058,0.963 1.394,0 0,0" /></g><g
           transform="translate(58.2831,84.4341)"
           id="g106"><path
             id="path108"
             style="fill:#2d2f71;fill-opacity:1;fill-rule:nonzero;stroke:none"
             d="m 0,0 c 3.911,0 7.822,-0.051 11.731,0.029 1.3,0.026 1.825,-0.343 1.656,-1.659 -0.083,-0.654 -0.062,-1.331 -0.005,-1.99 0.172,-1.967 -0.03,-3.324 -2.402,-4.219 -3.448,-1.301 -4.711,-5.604 -4.281,-9.431 0.447,-3.974 2.525,-6.199 5.928,-7.633 0.29,-0.122 0.704,-0.08 0.707,-0.509 0.015,-2.49 0.073,-4.982 -0.031,-7.468 -0.033,-0.795 -0.916,-0.507 -1.436,-0.509 -7.821,-0.017 -15.643,0.017 -23.464,-0.037 -1.511,-0.011 -2.081,0.473 -2.03,2.008 0.091,2.737 -10e-4,5.48 0.035,8.22 0.022,1.664 -0.567,2.634 -2.382,2.781 -2.347,0.191 -3.682,1.611 -4.116,3.878 -0.499,2.608 0.995,4.436 3.153,4.846 3.23,0.614 3.518,2.425 3.382,5.063 -0.11,2.123 -0.949,4.922 0.335,6.229 1.289,1.314 4.093,0.324 6.231,0.386 C -4.661,0.052 -2.33,0 0,0" /></g><g
           transform="translate(88.6179,124.8228)"
           id="g110"><path
             id="path112"
             style="fill:#ffffff;fill-opacity:1;fill-rule:nonzero;stroke:none"
             d="m 0,0 c -0.744,0 -1.266,0.47 -1.577,0.75 l -0.13,0.114 c -2.974,2.381 -5.765,3.751 -8.786,4.312 -2.206,0.409 -3.266,1.859 -2.905,3.977 0.098,0.578 0.071,1.236 0.043,1.932 -0.015,0.356 -0.029,0.711 -0.029,1.064 v 1.598 c 0,1.251 0,2.432 -0.186,2.69 -0.188,0.26 -1.466,0.602 -2.4,0.852 -3.353,0.896 -4.079,3.599 -4.334,5.553 -0.147,1.137 0.333,2.464 1.321,3.639 1.138,1.358 2.657,2.206 4.06,2.269 1.337,0.061 1.618,0.25 1.561,2.125 -0.051,1.676 -0.041,3.37 -0.032,5.007 0.007,1.164 0.014,2.327 -10e-4,3.491 -0.007,0.571 -0.02,1.529 0.65,2.208 0.411,0.417 0.97,0.627 1.662,0.627 0.259,0 0.545,-0.028 0.876,-0.086 5.451,-0.96 12.575,-2.493 19.336,-5.855 3.894,-1.936 7.696,-4.391 12.329,-7.96 1.788,-1.378 1.163,-2.852 0.538,-3.842 -0.546,-0.864 -1.211,-1.527 -1.853,-2.167 -0.581,-0.579 -1.129,-1.125 -1.498,-1.747 -0.423,-0.714 -1.128,-1.108 -1.986,-1.108 -0.45,0 -0.859,0.108 -1.188,0.194 l -0.187,0.048 c -1.014,0.246 -1.973,0.371 -2.849,0.371 -2.448,0 -4.373,-0.963 -5.885,-2.944 C 4.749,14.753 4.383,11.988 5.461,8.893 5.506,8.767 5.557,8.641 5.607,8.514 5.9,7.787 6.445,6.432 5.454,5.205 4.308,3.785 2.963,2.296 1.224,0.521 0.895,0.185 0.46,0 0,0" /></g><g
           transform="translate(76.6516,136.9722)"
           id="g114"><path
             id="path116"
             style="fill:#5b3793;fill-opacity:1;fill-rule:nonzero;stroke:none"
             d="m 0,0 c 0,0.498 0,0.997 0,1.495 0,3.913 0.032,4.032 -3.637,5.013 -2.385,0.638 -3.041,2.419 -3.295,4.368 -0.223,1.714 2.059,4.22 4.039,4.309 2.566,0.116 2.979,1.475 2.914,3.583 -0.086,2.822 0.003,5.649 -0.032,8.473 -0.014,1.114 0.109,1.585 1.524,1.336 6.555,-1.155 12.937,-2.738 18.951,-5.728 4.345,-2.16 8.281,-4.875 12.095,-7.814 0.771,-0.595 0.799,-1.023 0.206,-1.962 C 31.817,11.572 30.29,10.638 29.392,9.124 28.998,8.458 28.203,8.763 27.586,8.913 23.57,9.888 19.994,9.234 17.389,5.822 15.193,2.946 14.912,-0.346 16.09,-3.723 c 0.28,-0.804 0.802,-1.621 0.228,-2.331 -1.292,-1.6 -2.7,-3.113 -4.141,-4.583 -0.299,-0.305 -0.711,0.201 -1.032,0.458 -2.791,2.235 -5.839,3.936 -9.413,4.599 -1.23,0.228 -2.024,0.83 -1.766,2.346 C 0.144,-2.184 0,-1.08 0,0" /></g><g
           transform="translate(123.8005,110.8027)"
           id="g118"><path
             id="path120"
             style="fill:#ffffff;fill-opacity:1;fill-rule:nonzero;stroke:none"
             d="m 0,0 c -2.122,0 -3.703,1.221 -4.832,3.733 -1.056,2.35 -3.064,3.445 -6.321,3.445 -0.612,0 -1.283,-0.04 -1.993,-0.119 -2.763,-0.309 -4.724,-1.835 -5.67,-4.413 -0.231,-0.63 -0.935,-2.547 -3.193,-2.548 -0.212,0 -0.439,0.018 -0.684,0.055 l -0.526,-0.008 c -5.014,0.008 -5.551,0.384 -7.174,5.029 l -0.202,0.59 c -0.316,0.935 -0.615,1.818 -1.094,2.423 -2.233,2.82 -0.28,4.889 0.77,6 1.623,1.719 3.099,3.61 4.471,5.399 0.668,0.87 0.63,1.583 -0.132,2.463 -2.12,2.452 -2.232,5.13 -0.316,7.541 0.908,1.141 2.21,2.451 4.256,2.451 0.916,0 1.904,-0.243 3.203,-0.787 0.716,-0.299 1.32,-0.445 1.843,-0.445 0.536,0 1.253,0.128 2.051,1.129 0.46,0.576 0.958,1.104 1.44,1.615 0.749,0.794 1.457,1.543 1.922,2.364 0.266,0.469 0.974,1.718 2.3,1.718 0.991,0 1.635,-0.698 2.152,-1.26 l 0.111,-0.119 C -4.217,32.596 -1.725,28.475 0.065,25.292 3.554,19.091 5.769,12.034 7.036,3.084 7.098,2.648 7.241,1.629 6.579,0.866 5.943,0.135 5.003,0.135 4.693,0.135 L 4.525,0.138 C 4.151,0.149 3.776,0.153 3.377,0.153 L 1.306,0.145 C 0.845,0.047 0.416,0 0,0" /></g><g
           transform="translate(124.9485,112.3639)"
           id="g122"><path
             id="path124"
             style="fill:#ac3b9c;fill-opacity:1;fill-rule:nonzero;stroke:none"
             d="m 0,0 c -2.03,-0.47 -3.519,0.154 -4.687,2.753 -1.827,4.066 -5.832,4.592 -9.764,4.153 -3.218,-0.36 -5.689,-2.187 -6.843,-5.332 -0.447,-1.216 -1.052,-1.778 -2.331,-1.581 -0.244,0.037 -0.498,0.008 -0.748,0.008 -4.429,0.008 -4.408,0.015 -5.851,4.141 -0.405,1.16 -0.762,2.429 -1.502,3.363 -1.405,1.775 -0.547,2.839 0.689,4.147 1.635,1.731 3.114,3.618 4.566,5.51 1.08,1.408 1.021,2.86 -0.184,4.253 -1.574,1.819 -1.877,3.723 -0.28,5.732 1.67,2.099 3.005,2.41 5.803,1.238 2.106,-0.881 3.988,-0.851 5.55,1.109 1.13,1.417 2.608,2.615 3.485,4.162 0.945,1.666 1.492,0.936 2.292,0.074 2.993,-3.219 5.341,-6.881 7.487,-10.694 C 1.487,16.273 3.407,8.939 4.485,1.324 4.632,0.287 4.413,-0.038 3.422,-0.007 2.425,0.025 1.426,0 0,0" /></g></g></g></g></svg>