<svg width="460" height="460" viewBox="0 0 460 460" fill="none" xmlns="http://www.w3.org/2000/svg">
<path opacity="0.997" fill-rule="evenodd" clip-rule="evenodd" d="M223.718 0.0704032C242.251 -0.696597 258.585 4.8034 272.718 16.5704C282.385 26.2371 292.051 35.9037 301.718 45.5704C306.032 48.2305 310.699 49.8972 315.718 50.5704C331.097 50.6524 346.43 51.3191 361.718 52.5704C386.943 60.4614 402.443 77.2944 408.218 103.07C408.551 116.737 408.885 130.403 409.218 144.07C409.891 149.089 411.558 153.756 414.218 158.07C427.655 170.502 439.988 183.835 451.218 198.07C464.393 224.828 461.727 249.828 443.218 273.07C433.551 282.737 423.885 292.403 414.218 302.07C411.558 306.384 409.891 311.051 409.218 316.07C409.136 331.449 408.469 346.782 407.218 362.07C399.327 387.295 382.494 402.795 356.718 408.57C343.051 408.903 329.385 409.237 315.718 409.57C310.699 410.243 306.032 411.91 301.718 414.57C289.286 428.007 275.953 440.34 261.718 451.57C234.96 464.745 209.96 462.079 186.718 443.57C177.051 433.903 167.385 424.237 157.718 414.57C153.404 411.91 148.737 410.243 143.718 409.57C130.051 409.237 116.385 408.903 102.718 408.57C74.8853 402.07 57.7183 384.903 51.2183 357.07C50.885 343.403 50.5516 329.737 50.2183 316.07C49.5451 311.051 47.8784 306.384 45.2183 302.07C31.7818 289.638 19.4484 276.305 8.21827 262.07C-4.95723 235.312 -2.29053 210.312 16.2183 187.07C25.885 177.403 35.5516 167.737 45.2183 158.07C47.8784 153.756 49.5451 149.089 50.2183 144.07C50.3003 128.691 50.967 113.358 52.2183 98.0704C60.2271 72.3935 77.3933 56.8935 103.718 51.5704C117.051 51.2371 130.385 50.9037 143.718 50.5704C148.737 49.8972 153.404 48.2305 157.718 45.5704C168.747 34.2072 180.081 23.2072 191.718 12.5704C201.509 5.9224 212.175 1.7558 223.718 0.0704032Z" fill="url(#paint0_linear_7_72)"/>
<g clip-path="url(#clip0_7_72)">
<path d="M213.5 127.494C213.5 122.534 210.373 118.168 206.384 115.203C200.131 110.513 196.25 104.045 196.25 96.875C196.25 82.5898 211.721 71 230.75 71C249.779 71 265.25 82.5898 265.25 96.875C265.25 104.045 261.369 110.513 255.116 115.203C251.127 118.168 248 122.534 248 127.494C248 134.394 253.606 140 260.506 140H291.125C305.41 140 317 151.59 317 165.875V196.494C317 203.394 322.606 209 329.506 209C334.466 209 338.832 205.873 341.797 201.884C346.487 195.631 352.955 191.75 360.125 191.75C374.41 191.75 386 207.221 386 226.25C386 245.279 374.41 260.75 360.125 260.75C352.955 260.75 346.487 256.869 341.797 250.616C338.832 246.627 334.466 243.5 329.506 243.5C322.606 243.5 317 249.106 317 256.006V321.125C317 335.41 305.41 347 291.125 347H260.506C253.606 347 248 341.394 248 334.494C248 329.534 251.127 325.168 255.116 322.203C261.369 317.513 265.25 311.045 265.25 303.875C265.25 289.59 249.779 278 230.75 278C211.721 278 196.25 289.59 196.25 303.875C196.25 311.045 200.131 317.513 206.384 322.203C210.373 325.168 213.5 329.534 213.5 334.494C213.5 341.394 207.894 347 200.994 347H135.875C121.59 347 110 335.41 110 321.125V256.006C110 249.106 115.606 243.5 122.506 243.5C127.466 243.5 131.832 246.627 134.797 250.616C139.487 256.869 145.955 260.75 153.125 260.75C167.41 260.75 179 245.279 179 226.25C179 207.221 167.41 191.75 153.125 191.75C145.955 191.75 139.487 195.631 134.797 201.884C131.832 205.873 127.466 209 122.506 209C115.606 209 110 203.394 110 196.494V165.875C110 151.59 121.59 140 135.875 140H200.994C207.894 140 213.5 134.394 213.5 127.494Z" fill="white"/>
</g>
<defs>
<linearGradient id="paint0_linear_7_72" x1="151.718" y1="57.5704" x2="316.218" y2="410.07" gradientUnits="userSpaceOnUse">
<stop stop-color="#634391"/>
<stop offset="0.25" stop-color="#AE559A"/>
<stop offset="0.5" stop-color="#BC71AD"/>
<stop offset="1" stop-color="#40BBD1"/>
</linearGradient>
<clipPath id="clip0_7_72">
<rect width="276" height="276" fill="white" transform="translate(110 71)"/>
</clipPath>
</defs>
</svg>
